<svg width="239" height="163" viewBox="0 0 239 163" fill="none" xmlns="http://www.w3.org/2000/svg">
<path d="M27.5636 121.512C28.1229 122.415 28.5337 123.435 28.7961 124.571C29.0476 125.69 29.108 126.816 28.9773 127.951C28.8534 129.057 28.5143 130.112 27.9602 131.117C27.4061 132.121 26.5888 132.958 25.5082 133.627C24.5517 134.219 23.6294 134.57 22.7412 134.679C21.8597 134.759 21.0276 134.661 20.2448 134.386C19.4797 134.101 18.777 133.678 18.1367 133.119C17.4965 132.56 16.946 131.908 16.4854 131.164C16.0248 130.42 15.6692 129.648 15.4186 128.847C15.1748 128.018 15.0778 127.208 15.1275 126.418C15.4641 126.724 15.7867 126.929 16.0954 127.032C16.3932 127.117 16.6669 127.143 16.9166 127.111C17.195 127.086 17.4636 127.005 17.7226 126.87C18.2894 126.519 18.5947 126.121 18.6386 125.678C18.7001 125.223 18.6103 124.801 18.369 124.411C18.2593 124.234 18.1142 124.079 17.9337 123.946C17.7422 123.795 17.5174 123.689 17.2593 123.628C17.0189 123.556 16.7418 123.544 16.428 123.591C16.1142 123.639 15.7802 123.772 15.4259 123.991C15.2311 124.112 14.9641 124.314 14.625 124.597C14.3037 124.87 13.9929 125.258 13.6926 125.763C13.3814 126.249 13.1326 126.857 12.9462 127.585C12.7598 128.313 12.7076 129.178 12.7895 130.181C12.8891 131.173 13.1658 132.313 13.6197 133.6C14.0913 134.876 14.8316 136.329 15.8406 137.959C16.5315 139.075 17.2409 139.983 17.9689 140.684C18.7037 141.356 19.4291 141.875 20.1453 142.24C20.8615 142.605 21.565 142.831 22.2558 142.918C22.9467 143.005 23.597 143.007 24.2069 142.923C24.8167 142.839 25.3705 142.705 25.8681 142.519C26.3726 142.305 26.8019 142.088 27.1562 141.869C27.6167 141.584 28.143 141.148 28.7351 140.56C29.334 139.945 29.8417 139.202 30.2584 138.331C30.675 137.46 30.9166 136.465 30.9832 135.346C31.0675 134.216 30.8321 132.965 30.2769 131.593C31.4343 132.077 32.5452 132.823 33.6098 133.83C34.6921 134.826 35.6445 135.989 36.467 137.317C37.5857 139.124 38.3437 141.08 38.7411 143.187C39.1453 145.264 39.1509 147.331 38.7579 149.388C38.3827 151.433 37.5861 153.372 36.3682 155.204C35.1612 157.054 33.5127 158.626 31.4225 159.92C29.8815 160.874 28.302 161.509 26.6842 161.825C25.0773 162.158 23.4649 162.225 21.8471 162.026C20.2292 161.827 18.6509 161.396 17.1123 160.731C15.5627 160.049 14.0768 159.192 12.6546 158.161C11.2324 157.131 9.90796 155.942 8.68141 154.594C7.44388 153.228 6.33709 151.757 5.36104 150.181C4.28629 148.445 3.39205 146.585 2.67831 144.601C1.9536 142.599 1.43218 140.57 1.11405 138.512C0.813623 136.444 0.720707 134.394 0.835297 132.363C0.956634 130.303 1.33145 128.356 1.95976 126.521C2.5771 124.669 3.461 122.97 4.61146 121.425C5.75095 119.862 7.17978 118.548 8.89796 117.484C10.4567 116.519 11.9446 115.855 13.3617 115.493C14.7678 115.112 16.0879 114.969 17.322 115.062C18.5628 115.127 19.7168 115.368 20.7839 115.786C21.8509 116.203 22.8105 116.724 23.6625 117.348C24.5322 117.961 25.2956 118.64 25.9527 119.385C26.5989 120.112 27.1359 120.821 27.5636 121.512ZM52.0556 102.893C52.3897 103.789 52.8149 104.812 53.3312 105.963C53.8652 107.102 54.4629 108.325 55.1243 109.63C55.7925 110.907 56.5167 112.236 57.297 113.615C58.0664 114.976 58.8624 116.321 59.6849 117.649C59.959 118.092 60.2421 118.53 60.5339 118.961C60.8149 119.376 61.0814 119.786 61.3337 120.194C61.8711 121.062 62.4266 122.078 63.0002 123.242C63.5916 124.395 64.0932 125.64 64.5049 126.978C64.9234 128.287 65.2157 129.65 65.382 131.066C65.5482 132.482 65.4695 133.879 65.1456 135.255C64.8395 136.621 64.2432 137.934 63.3568 139.193C62.4813 140.47 61.2199 141.619 59.5726 142.639C58.1555 143.516 56.7827 144.109 55.4542 144.417C54.1434 144.714 52.8832 144.796 51.6736 144.662C50.4707 144.5 49.3206 144.147 48.2231 143.601C47.1257 143.055 46.0961 142.382 45.1344 141.581C44.1618 140.762 43.2503 139.843 42.4 138.826C41.5674 137.798 40.8111 136.735 40.1312 135.637C39.9667 135.371 39.868 135.211 39.8351 135.158C39.8089 135.077 39.7903 135.027 39.7794 135.009C39.7684 134.991 39.7608 134.959 39.7566 134.913C39.7414 134.849 39.6625 134.702 39.52 134.471C39.3774 134.241 39.1526 133.878 38.8455 133.382C38.5561 132.875 38.1318 132.17 37.5725 131.266C36.9145 130.204 36.1565 129.019 35.2986 127.712C34.4297 126.388 33.5384 125.127 32.6248 123.928C31.718 122.701 30.8347 121.631 29.9751 120.717C29.1155 119.804 28.3694 119.212 27.7367 118.942C29.325 118.302 30.7754 117.637 32.0879 116.946C33.4181 116.245 34.6057 115.571 35.6508 114.924C36.3416 114.497 36.9561 114.104 37.4942 113.746C38.0391 113.36 38.5043 113.023 38.8898 112.735C39.3284 112.415 39.7172 112.113 40.0563 111.829C40.7768 113.784 41.6542 115.973 42.6885 118.396C43.7295 120.79 45.1329 123.412 46.8985 126.264C47.3043 126.92 47.7531 127.585 48.2449 128.261C48.7544 128.925 49.2753 129.51 49.8076 130.013C50.329 130.499 50.8431 130.854 51.3501 131.08C51.8638 131.276 52.3332 131.243 52.7583 130.98C53.2897 130.651 53.5963 130.216 53.6781 129.675C53.7599 129.134 53.6962 128.537 53.4869 127.882C53.2844 127.199 52.9727 126.498 52.5518 125.778C52.1485 125.048 51.7275 124.328 51.2889 123.62C49.8455 121.328 48.4421 119.22 47.0789 117.295C46.4994 116.477 45.8966 115.662 45.2707 114.849C44.6624 114.025 44.0694 113.265 43.4915 112.569C42.9027 111.856 42.351 111.242 41.8365 110.727C41.3109 110.195 40.8499 109.806 40.4534 109.562C42.0417 108.921 43.4744 108.267 44.7515 107.599C46.0285 106.931 47.1453 106.301 48.1018 105.709C48.7395 105.314 49.3008 104.954 49.7858 104.629C50.2775 104.276 50.6896 103.972 51.0219 103.717C51.4251 103.418 51.7697 103.144 52.0556 102.893ZM72.4693 99.2958C71.9202 99.6358 71.5229 100.102 71.2775 100.695C71.0211 101.271 70.8913 101.951 70.8879 102.737C70.8914 103.495 71.0015 104.346 71.2183 105.29C71.4529 106.222 71.7811 107.208 72.2029 108.245C73.1351 109.751 74.1137 111.252 75.1386 112.749C76.1636 114.247 77.2219 115.699 78.3135 117.105C79.4051 118.512 80.519 119.856 81.6553 121.138C82.8093 122.408 83.9726 123.574 85.1452 124.637C84.8508 124.795 84.5067 124.971 84.1127 125.166C83.7829 125.346 83.3823 125.569 82.9108 125.837C82.457 126.093 81.9378 126.402 81.3533 126.764C80.2551 127.444 79.0126 128.287 77.6259 129.293C76.246 130.27 74.7615 131.434 73.1724 132.785C72.7708 131.662 72.2056 130.333 71.4767 128.8C70.7478 127.266 69.9155 125.625 68.98 123.877C68.0444 122.128 67.0384 120.325 65.9619 118.468C64.8923 116.582 63.8036 114.744 62.6959 112.955C61.8734 111.627 61.0496 110.336 60.2246 109.082C59.3996 107.829 58.6007 106.657 57.8279 105.567C57.0729 104.467 56.3462 103.471 55.6477 102.58C54.9492 101.69 54.3153 100.943 53.7458 100.34C55.3341 99.6993 56.7457 99.0703 57.9806 98.4528C59.2222 97.8066 60.3124 97.1929 61.2512 96.6116C61.8535 96.2387 62.3794 95.9009 62.829 95.598C63.2676 95.2775 63.6442 94.9953 63.9588 94.7515C64.2979 94.4681 64.6015 94.2065 64.8697 93.967C65.2055 94.9842 65.6548 96.066 66.2175 97.2123C66.4476 95.5261 66.9385 94.0828 67.69 92.8824C68.4592 91.6711 69.322 90.7693 70.2786 90.1771C71.8727 89.1901 73.3999 88.6489 74.86 88.5535C76.3092 88.4404 77.6609 88.6448 78.9153 89.1669C80.1586 89.6712 81.2983 90.4236 82.3342 91.4239C83.3701 92.4243 84.2664 93.5356 85.0231 94.7578C85.7579 95.9445 86.3079 97.2089 86.6733 98.551C87.0386 99.893 87.1821 101.213 87.1037 102.511C87.0144 103.792 86.6703 104.997 86.0715 106.127C85.4726 107.258 84.5798 108.19 83.393 108.925C82.348 109.572 81.3438 109.949 80.3805 110.055C79.4349 110.151 78.5475 110.063 77.7183 109.792C76.8891 109.522 76.151 109.121 75.504 108.59C74.8638 108.031 74.3353 107.415 73.9185 106.742C73.4799 106.033 73.1496 105.282 72.9277 104.488C72.7235 103.684 72.6463 102.886 72.696 102.096C73.0612 102.409 73.3982 102.617 73.707 102.72C74.0225 102.794 74.305 102.815 74.5547 102.783C74.8331 102.757 75.1017 102.677 75.3607 102.541C76.0161 102.135 76.41 101.683 76.5424 101.185C76.6925 100.675 76.6414 100.217 76.3892 99.8093C76.2685 99.6144 76.096 99.415 75.8716 99.2108C75.6473 99.0067 75.3718 98.8587 75.0454 98.7668C74.7367 98.6639 74.3701 98.6458 73.9459 98.7124C73.5106 98.7614 73.0184 98.9559 72.4693 99.2958ZM106.818 77.9561C107.256 78.6646 107.509 79.39 107.577 80.1323C107.645 80.8746 107.565 81.5975 107.339 82.301C107.102 82.9868 106.736 83.6422 106.241 84.2673C105.735 84.8747 105.128 85.3977 104.419 85.8363C103.604 86.3408 102.844 86.6766 102.139 86.8437C101.452 86.9997 100.811 87.0533 100.217 87.0045C99.6302 86.9269 99.1064 86.7734 98.6458 86.544C98.1743 86.2969 97.758 86.0401 97.3969 85.7735C97.0536 85.496 96.771 85.2177 96.5491 84.9385C96.3273 84.6593 96.167 84.44 96.0683 84.2806C96.4141 84.483 96.733 84.5429 97.0249 84.4602C97.3167 84.3775 97.5335 84.2923 97.6752 84.2046C98.0826 83.9523 98.3091 83.6651 98.3546 83.3429C98.4001 83.0206 98.3516 82.7444 98.209 82.5141C98.1213 82.3724 97.9872 82.2349 97.8066 82.1017C97.6261 81.9684 97.4034 81.8858 97.1386 81.8537C96.8627 81.804 96.5502 81.8137 96.201 81.8829C95.8518 81.9521 95.4646 82.1183 95.0395 82.3815C94.7738 82.546 94.5233 82.7746 94.288 83.0673C94.0527 83.36 93.8823 83.6983 93.7769 84.0821C93.6782 84.4372 93.6533 84.8324 93.7023 85.2676C93.7403 85.6852 93.8909 86.1065 94.1541 86.5316C94.6476 87.3287 95.268 87.8757 96.0154 88.1726C96.7628 88.4694 97.5958 88.6276 98.5143 88.6469C99.4397 88.6376 100.428 88.5523 101.48 88.3911C102.55 88.219 103.648 88.0536 104.775 87.8949C105.891 87.7186 107.013 87.6118 108.142 87.5746C109.277 87.5087 110.381 87.6095 111.453 87.8768C112.543 88.1332 113.582 88.6046 114.571 89.2912C115.559 89.9777 116.454 90.9675 117.255 92.2606C118.274 93.9079 118.859 95.6042 119.009 97.3494C119.158 99.0947 118.962 100.796 118.421 102.455C117.886 104.085 117.028 105.608 115.847 107.025C114.677 108.46 113.269 109.687 111.621 110.707C110.116 111.64 108.564 112.319 106.965 112.745C105.367 113.171 103.838 113.333 102.379 113.232C100.919 113.131 99.5816 112.771 98.3653 112.152C97.1666 111.522 96.2108 110.631 95.498 109.48C94.9606 108.612 94.6362 107.771 94.5248 106.958C94.4025 106.127 94.4577 105.346 94.6904 104.614C94.9409 103.87 95.3369 103.184 95.8784 102.555C96.4376 101.915 97.1158 101.348 97.9128 100.854C98.4974 100.492 99.1203 100.192 99.7816 99.9546C100.443 99.7167 101.107 99.5627 101.774 99.4926C102.442 99.4226 103.089 99.4386 103.715 99.5406C104.342 99.6426 104.922 99.8471 105.455 100.154C105.291 100.206 105.133 100.268 104.981 100.338C104.846 100.397 104.707 100.47 104.566 100.558C104.176 100.799 103.932 101.097 103.833 101.452C103.741 101.779 103.838 102.172 104.123 102.633C104.43 103.129 104.891 103.419 105.507 103.503C106.123 103.588 106.679 103.476 107.175 103.169C107.458 102.994 107.686 102.767 107.857 102.49C108.028 102.212 108.142 101.921 108.198 101.617C108.244 101.294 108.234 100.982 108.169 100.679C108.122 100.365 108.016 100.076 107.852 99.8098C107.566 99.3493 107.1 98.952 106.452 98.618C105.822 98.2731 105.114 98.0989 104.328 98.0956C102.784 98.0957 101.363 98.1548 100.064 98.273C98.7646 98.3912 97.5618 98.4866 96.4551 98.5592C95.3484 98.6318 94.3214 98.6551 93.3742 98.629C92.4446 98.5919 91.5686 98.4237 90.7462 98.1243C89.9127 97.8072 89.1253 97.3269 88.3838 96.6833C87.6313 96.022 86.8987 95.1157 86.1858 93.9644C85.3414 92.6004 84.8284 91.1783 84.647 89.6979C84.4723 88.1889 84.6266 86.6967 85.1098 85.2214C85.593 83.746 86.4217 82.3141 87.5958 80.9256C88.7589 79.5194 90.2704 78.2405 92.1303 77.089C94.0256 75.9156 95.7569 75.15 97.3241 74.7922C98.9091 74.4235 100.314 74.3378 101.539 74.5351C102.781 74.7214 103.843 75.13 104.724 75.7609C105.604 76.3918 106.302 77.1235 106.818 77.9561ZM132.484 61.2933C133.307 62.6218 133.912 64.0355 134.301 65.5344C134.708 67.0223 134.735 68.5495 134.381 70.1159C134.028 71.6824 133.217 73.2623 131.95 74.8558C130.7 76.4383 128.826 78.0028 126.328 79.5491C126.937 80.3732 127.563 80.9897 128.209 81.3988C128.872 81.7969 129.517 82.047 130.143 82.149C130.77 82.251 131.369 82.248 131.939 82.14C132.509 82.032 133.011 81.8928 133.444 81.7224C133.878 81.552 134.228 81.3845 134.493 81.22C134.759 81.0555 134.892 80.9732 134.892 80.9732C135.913 80.1693 136.721 79.2772 137.315 78.297C137.577 77.8896 137.803 77.4434 137.993 76.9583C138.172 76.4556 138.287 75.9305 138.341 75.383C138.4 74.8069 138.371 74.2249 138.252 73.637C138.14 73.0204 137.904 72.3823 137.544 71.7226C138.718 72.5889 139.706 73.472 140.508 74.3719C141.317 75.2432 141.99 76.1129 142.527 76.9808C143.515 78.575 144.132 80.2261 144.381 81.9343C144.637 83.6137 144.562 85.2531 144.155 86.8524C143.749 88.4517 143.01 89.9503 141.94 91.3481C140.898 92.7526 139.563 93.9593 137.933 94.9683C136.339 95.9553 134.628 96.6348 132.8 97.0069C130.99 97.3681 129.142 97.3117 127.256 96.8377C125.376 96.3351 123.499 95.3412 121.624 93.8558C119.766 92.3596 117.993 90.2475 116.304 87.5197C114.473 84.5616 113.275 81.6768 112.71 78.8654C112.146 76.054 112.104 73.4336 112.584 71.0043C113.054 68.5572 113.981 66.3539 115.365 64.3943C116.756 62.406 118.487 60.7704 120.56 59.4872C121.587 58.8512 122.642 58.3576 123.723 58.0067C124.822 57.6447 125.89 57.5101 126.928 57.6028C127.983 57.6846 128.987 58.019 129.938 58.606C130.879 59.1753 131.727 60.0711 132.484 61.2933ZM123.508 75.2309C123.993 74.9061 124.508 74.4522 125.054 73.8693C125.589 73.2687 126.044 72.6192 126.42 71.9207C126.796 71.2223 127.026 70.5044 127.108 69.7672C127.209 69.019 127.061 68.326 126.667 67.6884C126.414 67.281 126.07 67.041 125.633 66.9685C125.196 66.896 124.756 66.9968 124.313 67.271C123.693 67.6548 123.245 68.1774 122.968 68.8387C122.709 69.4891 122.567 70.1897 122.542 70.9404C122.535 71.6801 122.622 72.4347 122.804 73.2039C122.986 73.9732 123.221 74.6489 123.508 75.2309ZM162.516 76.7341C162.204 76.9028 161.833 77.0956 161.404 77.3124C161.039 77.514 160.612 77.754 160.122 78.0324C159.633 78.3108 159.079 78.6419 158.459 79.0258C157.307 79.7386 156.012 80.6143 154.572 81.6527C153.121 82.6735 151.601 83.8595 150.012 85.211C149.932 84.3295 149.694 83.3126 149.3 82.1604C148.894 80.9905 148.405 79.786 147.834 78.5469C147.27 77.2791 146.656 76.0299 145.992 74.7993C145.345 73.5576 144.733 72.4299 144.154 71.416C143.576 70.4022 143.072 69.5498 142.645 68.859C142.235 68.1572 141.975 67.7178 141.865 67.5406C140.404 65.2599 138.992 63.1571 137.629 61.2322C137.049 60.4149 136.446 59.5997 135.82 58.7866C135.212 57.9625 134.619 57.2025 134.041 56.5067C133.452 55.7931 132.901 55.179 132.386 54.6645C131.878 54.1213 131.426 53.7274 131.03 53.4828C132.618 52.8425 134.051 52.1883 135.328 51.5201C136.605 50.852 137.739 50.2108 138.731 49.5967C139.369 49.2019 139.93 48.8421 140.415 48.5173C140.907 48.1638 141.319 47.8597 141.651 47.605C142.055 47.3063 142.399 47.0318 142.685 46.7812C143.353 48.5728 144.277 50.6592 145.458 53.0404C146.656 55.4106 148.05 57.8799 149.64 60.4483C150.55 61.9185 151.507 63.3844 152.51 64.8462C153.513 66.3079 154.56 67.7423 155.652 69.1492C156.732 70.5384 157.846 71.8825 158.994 73.1814C160.148 74.4517 161.322 75.6359 162.516 76.7341ZM126.797 46.29C126.292 45.4752 125.971 44.6203 125.834 43.7254C125.703 42.8017 125.739 41.9097 125.941 41.0493C126.15 40.1602 126.525 39.3403 127.065 38.5895C127.594 37.8211 128.265 37.1846 129.08 36.6801C129.895 36.1756 130.755 35.8635 131.661 35.7436C132.574 35.5951 133.466 35.6309 134.337 35.851C135.215 36.0424 136.03 36.4081 136.781 36.9479C137.538 37.459 138.169 38.1219 138.674 38.9368C139.178 39.7516 139.496 40.6208 139.627 41.5444C139.775 42.4571 139.745 43.358 139.536 44.2471C139.333 45.1075 138.968 45.9219 138.439 46.6904C137.917 47.4302 137.248 48.0523 136.433 48.5568C135.619 49.0613 134.755 49.3878 133.842 49.5363C132.919 49.6671 132.018 49.6368 131.14 49.4453C130.268 49.2252 129.448 48.8508 128.68 48.3219C127.929 47.7821 127.301 47.1048 126.797 46.29ZM164.135 42.5425C163.586 42.8824 163.189 43.3489 162.943 43.9419C162.687 44.5172 162.557 45.1979 162.554 45.9841C162.557 46.7416 162.667 47.5923 162.884 48.5361C163.119 49.4691 163.447 50.4543 163.869 51.4918C164.801 52.9974 165.779 54.4988 166.804 55.996C167.829 57.4931 168.888 58.9452 169.979 60.3521C171.071 61.759 172.185 63.1031 173.321 64.3843C174.475 65.6546 175.638 66.8211 176.811 67.8839C176.516 68.0416 176.172 68.2179 175.778 68.4128C175.449 68.5925 175.048 68.8161 174.576 69.0835C174.123 69.3399 173.603 69.6491 173.019 70.011C171.921 70.691 170.678 71.5337 169.292 72.5393C167.912 73.5162 166.427 74.6803 164.838 76.0317C164.436 74.9082 163.871 73.5797 163.142 72.0462C162.413 70.5127 161.581 68.8717 160.646 67.1232C159.71 65.3746 158.704 63.5717 157.628 61.7143C156.558 59.8283 155.469 57.9907 154.362 56.2017C153.539 54.8732 152.715 53.5823 151.89 52.3289C151.065 51.0754 150.266 49.9039 149.494 48.8141C148.739 47.7133 148.012 46.7176 147.313 45.8269C146.615 44.9362 145.981 44.1893 145.411 43.5862C147 42.9459 148.411 42.317 149.646 41.6994C150.888 41.0532 151.978 40.4395 152.917 39.8582C153.519 39.4854 154.045 39.1475 154.495 38.8447C154.933 38.5241 155.31 38.2419 155.624 37.9981C155.964 37.7147 156.267 37.4532 156.535 37.2136C156.871 38.2309 157.32 39.3126 157.883 40.4589C158.113 38.7727 158.604 37.3294 159.356 36.1291C160.125 34.9177 160.988 34.016 161.944 33.4237C163.538 32.4367 165.066 31.8955 166.526 31.8001C167.975 31.687 169.327 31.8915 170.581 32.4135C171.824 32.9179 172.964 33.6702 174 34.6706C175.036 35.6709 175.932 36.7822 176.689 38.0044C177.424 39.1912 177.974 40.4556 178.339 41.7976C178.704 43.1396 178.848 44.4597 178.769 45.7579C178.68 47.0383 178.336 48.2437 177.737 49.3741C177.138 50.5044 176.245 51.437 175.059 52.1718C174.014 52.8188 173.009 53.1955 172.046 53.3019C171.101 53.3972 170.213 53.3096 169.384 53.0388C168.555 52.7681 167.817 52.3675 167.17 51.837C166.529 51.2778 166.001 50.6616 165.584 49.9885C165.145 49.28 164.815 48.5288 164.593 47.7351C164.389 46.9304 164.312 46.1329 164.362 45.3425C164.727 45.6554 165.064 45.8633 165.373 45.9662C165.688 46.0404 165.971 46.0615 166.22 46.0294C166.499 46.0041 166.767 45.9235 167.026 45.7877C167.682 45.3819 168.076 44.9298 168.208 44.4313C168.358 43.9218 168.307 43.4633 168.055 43.0559C167.934 42.8611 167.762 42.6616 167.537 42.4575C167.313 42.2533 167.037 42.1053 166.711 42.0134C166.402 41.9105 166.036 41.8924 165.611 41.9591C165.176 42.008 164.684 42.2025 164.135 42.5425ZM207.151 27.7816C207.787 28.8089 208.409 29.9919 209.017 31.3306C209.615 32.6515 210.117 34.0559 210.523 35.5438C210.919 37.014 211.165 38.54 211.263 40.1215C211.349 41.6854 211.193 43.2151 210.796 44.7107C210.416 46.1953 209.741 47.618 208.77 48.9786C207.8 50.3393 206.446 51.557 204.71 52.6317C202.975 53.7065 201.292 54.3928 199.663 54.6907C198.052 54.9776 196.514 54.9865 195.049 54.7175C193.59 54.4198 192.215 53.8995 190.922 53.1564C189.617 52.3957 188.404 51.505 187.282 50.4844C186.16 49.4638 185.139 48.3686 184.219 47.1987C183.305 46.0001 182.498 44.834 181.796 43.7003C180.556 41.6987 179.61 39.5769 178.957 37.3349C178.293 35.0752 178.036 32.858 178.184 30.6834C178.35 28.4978 178.963 26.44 180.022 24.51C181.099 22.569 182.745 20.9131 184.959 19.5422C186.447 18.621 187.926 18.0233 189.398 17.7491C190.859 17.4571 192.292 17.4157 193.695 17.6248C195.099 17.8339 196.443 18.2636 197.728 18.9138C199.03 19.5532 200.256 20.3257 201.405 21.2316C202.554 22.1375 203.615 23.1589 204.588 24.2959C205.562 25.4329 206.416 26.5948 207.151 27.7816ZM198.447 34.3831C198.195 33.9757 197.865 33.4818 197.457 32.9015C197.055 32.2925 196.602 31.6789 196.096 31.0606C195.591 30.4423 195.05 29.846 194.474 29.2716C193.916 28.6862 193.348 28.2046 192.771 27.8268C192.194 27.4489 191.615 27.2068 191.035 27.1006C190.472 26.9834 189.943 27.0783 189.447 27.3854C188.969 27.6815 188.651 28.0986 188.494 28.6368C188.338 29.175 188.285 29.7832 188.338 30.4613C188.408 31.1286 188.557 31.8447 188.786 32.6098C189.021 33.3461 189.289 34.0749 189.588 34.7961C189.894 35.4886 190.207 36.1524 190.527 36.7876C190.853 37.3941 191.143 37.901 191.395 38.3084C191.757 38.8929 192.24 39.574 192.844 40.3517C193.448 41.1294 194.11 41.8223 194.829 42.4304C195.549 43.0386 196.291 43.4856 197.056 43.7715C197.828 44.0287 198.568 43.938 199.277 43.4993C199.95 43.0826 200.354 42.4891 200.49 41.719C200.644 40.9379 200.634 40.1108 200.461 39.2378C200.277 38.3471 199.991 37.4702 199.604 36.6073C199.217 35.7444 198.831 35.003 198.447 34.3831ZM225.903 4.22602C226.342 4.93455 226.595 5.65996 226.663 6.40225C226.73 7.14454 226.651 7.86744 226.425 8.57094C226.188 9.25674 225.822 9.91217 225.327 10.5373C224.821 11.1446 224.213 11.6676 223.505 12.1063C222.69 12.6108 221.93 12.9466 221.225 13.1136C220.537 13.2697 219.897 13.3233 219.303 13.2744C218.716 13.1969 218.192 13.0434 217.731 12.814C217.26 12.5668 216.844 12.31 216.483 12.0435C216.139 11.766 215.857 11.4876 215.635 11.2085C215.413 10.9293 215.253 10.71 215.154 10.5505C215.5 10.753 215.819 10.8128 216.11 10.7302C216.402 10.6475 216.619 10.5623 216.761 10.4745C217.168 10.2223 217.395 9.93506 217.44 9.61283C217.486 9.29061 217.437 9.01436 217.295 8.78409C217.207 8.64238 217.073 8.5049 216.892 8.37163C216.712 8.23837 216.489 8.15572 216.224 8.12368C215.948 8.07393 215.636 8.08365 215.287 8.15284C214.937 8.22203 214.55 8.38823 214.125 8.65143C213.859 8.81593 213.609 9.04454 213.374 9.33726C213.138 9.62997 212.968 9.96823 212.862 10.352C212.764 10.7072 212.739 11.1024 212.788 11.5376C212.826 11.9551 212.976 12.3765 213.24 12.8016C213.733 13.5987 214.354 14.1457 215.101 14.4425C215.848 14.7394 216.681 14.8975 217.6 14.9169C218.525 14.9075 219.514 14.8223 220.566 14.6611C221.635 14.4889 222.734 14.3235 223.861 14.1649C224.976 13.9885 226.099 13.8817 227.227 13.8446C228.363 13.7787 229.466 13.8794 230.539 14.1468C231.628 14.4031 232.668 14.8746 233.656 15.5611C234.645 16.2477 235.54 17.2375 236.34 18.5306C237.36 20.1779 237.945 21.8742 238.094 23.6194C238.244 25.3646 238.048 27.0664 237.506 28.7248C236.971 30.3545 236.114 31.878 234.933 33.2952C233.763 34.7301 232.354 35.9575 230.707 36.9774C229.201 37.9096 227.649 38.5887 226.051 39.0148C224.453 39.4408 222.924 39.6033 221.464 39.5022C220.005 39.4011 218.667 39.041 217.451 38.4219C216.252 37.7919 215.296 36.9012 214.584 35.7498C214.046 34.8819 213.722 34.0413 213.61 33.2282C213.488 32.3973 213.543 31.6158 213.776 30.8836C214.027 30.1405 214.423 29.4542 214.964 28.8249C215.523 28.1847 216.201 27.6178 216.998 27.1243C217.583 26.7624 218.206 26.4625 218.867 26.2245C219.529 25.9866 220.193 25.8326 220.86 25.7626C221.527 25.6925 222.174 25.7085 222.801 25.8106C223.428 25.9126 224.008 26.1171 224.541 26.4241C224.377 26.4764 224.219 26.5376 224.066 26.6076C223.931 26.6667 223.793 26.74 223.651 26.8278C223.262 27.069 223.017 27.3672 222.919 27.7224C222.827 28.0488 222.923 28.4423 223.209 28.9029C223.516 29.3988 223.977 29.689 224.593 29.7733C225.209 29.8576 225.764 29.7462 226.26 29.4391C226.544 29.2637 226.771 29.0372 226.942 28.7596C227.114 28.4821 227.227 28.1911 227.284 27.8866C227.329 27.5644 227.32 27.2518 227.255 26.949C227.208 26.6352 227.102 26.3455 226.937 26.0798C226.652 25.6193 226.186 25.222 225.538 24.888C224.908 24.543 224.199 24.3689 223.413 24.3656C221.87 24.3657 220.448 24.4248 219.149 24.543C217.85 24.6611 216.647 24.7565 215.541 24.8292C214.434 24.9018 213.407 24.925 212.46 24.8989C211.53 24.8619 210.654 24.6937 209.832 24.3943C208.998 24.0771 208.211 23.5968 207.469 22.9533C206.717 22.292 205.984 21.3857 205.271 20.2343C204.427 18.8704 203.914 17.4483 203.733 15.9679C203.558 14.4589 203.712 12.9667 204.195 11.4913C204.679 10.016 205.507 8.58407 206.681 7.19557C207.845 5.78935 209.356 4.51048 211.216 3.35897C213.111 2.18552 214.843 1.41991 216.41 1.06216C217.995 0.693448 219.4 0.607743 220.624 0.805049C221.867 0.991388 222.928 1.4 223.809 2.0309C224.69 2.6618 225.388 3.3935 225.903 4.22602Z" fill="#0085FF"/>
</svg>
